# xmcd CD database file
#
# Track frame offsets:
#	150
#	11024
#	21810
#	32097
#	40242
#	60799
#	68351
#	79060
#	89676
#	98842
#	114760
#	135815
#	149282
#
# Disc length: 2063 seconds
#
# Revision: 0
# Processed by: cddbd v1.5PL3 Copyright (c) Steve Scherf et al.
# Submitted via: CDex 1.50beta8
#
DISCID=93080d0d
DTITLE=MAD3 - JACK THE VIOLENCE
DYEAR=1900
DGENRE=Rock and Roll
TTITLE0=JACK THE VIOLENCE
TTITLE1=SPACE JETTER
TTITLE2=GREEN HORNET
TTITLE3=FIRE BALL
TTITLE4=MAD VIKER
TTITLE5=Q
TTITLE6=THE WEDGE
TTITLE7=DETROIT U_F_O
TTITLE8=FUZZ MACHINE
TTITLE9=TORNADO GANG
TTITLE10=SHAKIN' ALL OVER
TTITLE11=KING PYRAMID
TTITLE12=BARANAGI
EXTD=
EXTT0=
EXTT1=
EXTT2=
EXTT3=
EXTT4=
EXTT5=
EXTT6=
EXTT7=
EXTT8=
EXTT9=
EXTT10=
EXTT11=
EXTT12=
PLAYORDER=
